<svg width="40" height="40" viewBox="0 0 40 40" fill="none" xmlns="http://www.w3.org/2000/svg">
<rect width="40" height="40" rx="20" fill="#C7EC24"/>
<path d="M30.5 24.8286C30.5 18.9188 27.9095 14.1274 27.9095 14.1274C25.3221 12.1466 22.858 12.2014 22.858 12.2014L22.6063 12.4952C25.6633 13.4493 27.0828 14.8267 27.0828 14.8267C25.4137 13.8863 23.5741 13.2871 21.6712 13.0649C20.4644 12.9291 19.245 12.9406 18.0403 13.0996C17.9318 13.0996 17.8412 13.1186 17.7349 13.1365C17.1052 13.1923 15.5761 13.4303 13.6532 14.2938C12.9888 14.6045 12.5918 14.8256 12.5918 14.8256C12.5918 14.8256 14.085 13.3745 17.32 12.4204L17.1399 12.2003C17.1399 12.2003 14.6768 12.1466 12.0884 14.1285C12.0884 14.1285 9.5 18.9178 9.5 24.8286C9.5 24.8286 11.0101 27.4886 14.9833 27.6181C14.9833 27.6181 15.6477 26.7936 16.189 26.0954C13.9039 25.3962 13.0425 23.9282 13.0425 23.9282C13.0425 23.9282 13.2204 24.0577 13.5437 24.241C13.5616 24.2589 13.5785 24.2778 13.6153 24.2947C13.669 24.3326 13.7238 24.3505 13.7775 24.3873C14.2272 24.6443 14.6758 24.8454 15.0886 25.0118C15.8267 25.3056 16.7071 25.5994 17.7338 25.8016C19.2713 26.1028 20.8509 26.1091 22.3904 25.8195C23.2866 25.6594 24.1617 25.3951 24.9967 25.0307C25.6265 24.7917 26.3267 24.4421 27.0649 23.9472C27.0649 23.9472 26.1667 25.452 23.8099 26.1322C24.3502 26.8294 24.9978 27.617 24.9988 27.6181C28.971 27.4896 30.5 24.8286 30.5 24.8286ZM16.5281 22.8762C15.4971 22.8762 14.6473 22.0896 14.6473 21.1281C14.6473 20.1667 15.4771 19.3801 16.5281 19.3801C17.5769 19.3801 18.4267 20.1667 18.4067 21.1281C18.4078 22.0896 17.579 22.8762 16.5281 22.8762ZM23.255 22.8762C22.224 22.8762 21.3763 22.0896 21.3763 21.1281C21.3763 20.1667 22.2051 19.3801 23.255 19.3801C24.3049 19.3801 25.1357 20.1667 25.1357 21.1281C25.1357 22.0896 24.3059 22.8762 23.255 22.8762Z" fill="#131313"/>
</svg>
