<svg width="40" height="40" viewBox="0 0 40 40" fill="none" xmlns="http://www.w3.org/2000/svg">
<rect width="40" height="40" rx="20" fill="#C7EC24"/>
<path d="M29.9549 13.9296C29.2054 14.2637 28.4108 14.4804 27.5982 14.5797C28.456 14.065 29.0971 13.2614 29.4041 12.3133C28.6095 12.7738 27.7336 13.1079 26.7946 13.2975C25.5305 11.9431 23.5079 11.6091 21.8646 12.4849C20.2212 13.3607 19.3815 15.2298 19.8059 17.0357C16.4108 16.8732 13.386 15.2298 11.3634 12.7558C11.0023 13.3878 10.8036 14.1012 10.8126 14.8235C10.8126 16.2501 11.535 17.4962 12.6366 18.2366C11.9865 18.2185 11.3454 18.038 10.7765 17.7219V17.7761C10.7765 19.7264 12.149 21.4059 14.0632 21.7942C13.4582 21.9567 12.8352 21.9838 12.2212 21.8664C12.763 23.5368 14.298 24.6835 16.0587 24.7106C14.605 25.8483 12.8172 26.4623 10.9752 26.4623C10.6501 26.4623 10.3251 26.4443 10 26.4082C11.8781 27.6091 14.0632 28.2501 16.2935 28.2501C23.833 28.2501 27.9594 22.0018 27.9594 16.5933C27.9594 16.4217 27.9594 16.2411 27.9503 16.0696C28.754 15.4917 29.4492 14.7693 30 13.9477L29.9549 13.9296Z" fill="#131313"/>
</svg>
