<svg width="40" height="40" viewBox="0 0 40 40" fill="none" xmlns="http://www.w3.org/2000/svg">
<rect width="40" height="40" rx="20" fill="#C7EC24"/>
<path d="M29.002 20.0566C29.002 15.0555 24.9727 11.0015 20.0031 11.0015C15.0312 11.0026 11.002 15.0555 11.002 20.0577C11.002 24.5763 14.2933 28.3221 18.5948 29.0015V22.6741H16.3113V20.0577H18.597V18.0611C18.597 15.7922 19.9412 14.5391 21.9963 14.5391C22.9817 14.5391 24.011 14.7158 24.011 14.7158V16.943H22.876C21.759 16.943 21.4103 17.6415 21.4103 18.358V20.0566H23.9052L23.507 22.673H21.4092V29.0003C25.7106 28.3209 29.002 24.5751 29.002 20.0566Z" fill="#131313"/>
</svg>
